<svg width="16" height="16" viewBox="0 0 16 16" fill="none" xmlns="http://www.w3.org/2000/svg">
<path fill-rule="evenodd" clip-rule="evenodd" d="M5.5 11H4.419L4.077 12.026L3.919 12.5H2V9.52C2.496 9.649 3.213 9.75 4.25 9.75C4.44891 9.75 4.63968 9.67099 4.78033 9.53033C4.92098 9.38968 5 9.19892 5 9C5 8.80109 4.92098 8.61033 4.78033 8.46967C4.63968 8.32902 4.44891 8.25 4.25 8.25C3.177 8.25 2.568 8.13 2.252 8.033C2.18269 8.01172 2.11459 7.98668 2.048 7.958C2.12461 7.62816 2.29272 7.32661 2.533 7.088C2.60633 7.01467 2.67767 6.93867 2.747 6.86C4.272 7.293 6.15 7.5 8 7.5C9.85 7.5 11.728 7.293 13.253 6.86C13.3217 6.93934 13.393 7.01534 13.467 7.088C13.708 7.33 13.875 7.632 13.952 7.958C13.908 7.97934 13.84 8.00434 13.748 8.033C13.432 8.13 12.823 8.25 11.75 8.25C11.5511 8.25 11.3603 8.32902 11.2197 8.46967C11.079 8.61033 11 8.80109 11 9C11 9.19892 11.079 9.38968 11.2197 9.53033C11.3603 9.67099 11.5511 9.75 11.75 9.75C12.787 9.75 13.504 9.649 14 9.52V12.5H12.081L11.923 12.026L11.581 11H5.5ZM12.424 5.528C11.144 5.838 9.584 6 8 6C6.416 6 4.856 5.838 3.576 5.528C3.60667 5.45334 3.636 5.378 3.664 5.302L4.112 4.045C4.292 3.54 4.682 3.239 5.072 3.182C7.0139 2.90594 8.9851 2.90594 10.927 3.182C11.319 3.239 11.707 3.54 11.887 4.045L12.337 5.302C12.3637 5.378 12.3927 5.45334 12.424 5.528ZM10.772 13.316L10.5 12.5H5.5L5.228 13.316C5.16165 13.5152 5.03428 13.6885 4.86395 13.8112C4.69362 13.934 4.48896 14.0001 4.279 14H1.5C1.23478 14 0.98043 13.8946 0.792893 13.7071C0.605357 13.5196 0.5 13.2652 0.5 13V8.375C0.5 7.495 0.85 6.65 1.472 6.028C1.63316 5.8673 1.77726 5.69036 1.902 5.5H1.25C1.05109 5.5 0.860322 5.42099 0.71967 5.28033C0.579018 5.13968 0.5 4.94892 0.5 4.75C0.5 4.55109 0.579018 4.36033 0.71967 4.21967C0.860322 4.07902 1.05109 4 1.25 4H2.536L2.7 3.54C3.043 2.58 3.848 1.844 4.857 1.698C6.94182 1.4012 9.05818 1.4012 11.143 1.698C12.152 1.844 12.957 2.58 13.3 3.541L13.464 4H14.75C14.9489 4 15.1397 4.07902 15.2803 4.21967C15.421 4.36033 15.5 4.55109 15.5 4.75C15.5 4.94892 15.421 5.13968 15.2803 5.28033C15.1397 5.42099 14.9489 5.5 14.75 5.5H14.099C14.2237 5.69067 14.3667 5.86667 14.528 6.028C15.1503 6.65055 15.4999 7.49475 15.5 8.375V13C15.5 13.2652 15.3946 13.5196 15.2071 13.7071C15.0196 13.8946 14.7652 14 14.5 14H11.72C11.5102 13.9998 11.3058 13.9337 11.1356 13.811C10.9655 13.6882 10.8383 13.515 10.772 13.316Z" fill="black"/>
</svg>
